<?xml version="1.0" encoding="utf-8"?>
<!-- Generator: Adobe Illustrator 19.0.0, SVG Export Plug-In . SVG Version: 6.00 Build 0)  -->
<svg version="1.1" id="图层_1" xmlns="http://www.w3.org/2000/svg" xmlns:xlink="http://www.w3.org/1999/xlink" x="0px" y="0px"
	 viewBox="-882 344 50 50" style="enable-background:new -882 344 50 50;" xml:space="preserve">
<style type="text/css">
	.st0{fill:#666666;}
</style>
<g>
	<path class="st0" d="M-852.7,389.1c-6,0-13.1-5.5-17.8-13.7c-6.1-10.6-5.9-21.7,0.3-25.2c1.3-0.8,2.9-1.1,4.6-1c0.1,0,0.3,0,0.4,0
		h0.1c2.7,0,5.3,3.4,5.8,7.9c0.4,3-0.2,5.6-1.5,7.1c-0.7,0.8-1.6,1.2-2.6,1.3c0,0-0.1,0-0.1,0.1c-0.1,0.1-0.1,0.3,0,0.7
		c0.6,1.4,1.2,2.8,2,4.1c0.8,1.5,1.8,2.8,2.8,4.1l0,0c0.2,0.2,0.3,0.2,0.3,0.2c0.2,0,0.4-0.1,0.6-0.2c0.7-0.9,1.7-1.4,3.1-1.4
		c1.8,0,4,0.9,5.9,2.4c3.6,2.8,5,6.5,3.7,8.9c-0.1,0.2-0.1,0.2-0.2,0.4c-0.9,1.3-1.9,2.5-3.2,3.2
		C-849.7,388.8-851.1,389.1-852.7,389.1L-852.7,389.1L-852.7,389.1 M-854.7,375.4c-0.4,0-1,0.1-1.3,0.5c-0.1,0.1-0.1,0.2-0.2,0.3
		c-0.1,0.1-1,0.8-2.1,0.8c-0.7,0-1.4-0.3-1.9-0.8c-0.1-0.1-0.1-0.1-0.2-0.2c-1.1-1.4-2.1-2.9-3-4.5c-0.8-1.5-1.6-3-2.2-4.5
		c0-0.1,0-0.1-0.1-0.2c-0.2-1.1-0.1-2,0.5-2.7c0.7-0.9,1.8-0.9,1.9-0.9c0.1,0,0.5,0,0.9-0.5c0.9-1,1.3-3.1,1-5.4
		c-0.4-3.4-2.3-6-3.6-6c-0.1,0-0.1,0-0.2,0c-0.1,0-0.2,0-0.3,0c-1.3-0.1-2.5,0.2-3.5,0.7c-5,2.8-4.7,13,0.6,22.2
		c4.2,7.4,10.7,12.6,15.9,12.6c1.1,0,2.1-0.3,3-0.7c1-0.5,1.9-1.5,2.5-2.5c0.1-0.1,0.1-0.2,0.2-0.4c0.6-1.1-0.6-3.9-3.3-5.9
		C-851.8,376.1-853.4,375.4-854.7,375.4L-854.7,375.4 M-851.1,367.8c-0.1,0-0.1,0-0.2,0c-0.6-0.1-1-0.7-0.9-1.3
		c0.1-0.4,0-0.9-0.3-1.3s-0.6-0.6-1.1-0.7c-0.6-0.1-1-0.7-0.9-1.3s0.7-1,1.3-0.9c1,0.2,2,0.8,2.6,1.6c0.6,0.9,0.8,1.9,0.6,3
		C-850.1,367.4-850.6,367.8-851.1,367.8L-851.1,367.8 M-847.3,367.7c-0.1,0-0.1,0-0.2,0c-0.6-0.1-1-0.7-0.9-1.3
		c0.5-2.5-1.2-5-3.8-5.4c-0.6-0.1-1-0.7-0.9-1.3c0.1-0.6,0.7-1,1.3-0.9c3.8,0.7,6.3,4.3,5.6,8.1
		C-846.2,367.4-846.7,367.7-847.3,367.7L-847.3,367.7 M-842.8,369c-0.1,0-0.1,0-0.2,0c-0.6-0.1-1-0.7-0.9-1.3
		c0.5-2.5-0.1-5.1-1.6-7.2c-1.5-2.1-3.7-3.5-6.3-4c-0.6-0.1-1-0.7-0.9-1.3c0.1-0.6,0.7-1,1.3-0.9c3.2,0.6,5.9,2.3,7.7,4.9
		s2.5,5.8,1.9,8.9C-841.8,368.6-842.3,369-842.8,369L-842.8,369 M-842.8,369L-842.8,369z"/>
</g>
</svg>
